<?xml version="1.0" encoding="UTF-8" standalone="no"?>
<svg
   xmlns:dc="http://purl.org/dc/elements/1.1/"
   xmlns:cc="http://creativecommons.org/ns#"
   xmlns:rdf="http://www.w3.org/1999/02/22-rdf-syntax-ns#"
   xmlns:svg="http://www.w3.org/2000/svg"
   xmlns="http://www.w3.org/2000/svg"
   xmlns:sodipodi="http://sodipodi.sourceforge.net/DTD/sodipodi-0.dtd"
   xmlns:inkscape="http://www.inkscape.org/namespaces/inkscape"
   width="128.36302mm"
   height="207.46292mm"
   viewBox="0 0 128.36302 207.46292"
   version="1.1"
   id="svg2234"
   inkscape:version="1.0.2 (1.0.2+r75+1)"
   sodipodi:docname="zong.svg">
  <defs
     id="defs2228">
    <filter
       inkscape:collect="always"
       style="color-interpolation-filters:sRGB"
       id="filter2872"
       x="-1.0800001e-05"
       width="1.0000216"
       y="-1.08e-05"
       height="1.0000216">
      <feGaussianBlur
         inkscape:collect="always"
         stdDeviation="0.00042299157"
         id="feGaussianBlur2874" />
    </filter>
  </defs>
  <sodipodi:namedview
     id="base"
     pagecolor="#ffffff"
     bordercolor="#666666"
     borderopacity="1.0"
     inkscape:pageopacity="0.0"
     inkscape:pageshadow="2"
     inkscape:zoom="0.11659972"
     inkscape:cx="-188.0005"
     inkscape:cy="42.269262"
     inkscape:document-units="mm"
     inkscape:current-layer="layer2"
     inkscape:document-rotation="0"
     showgrid="false"
     inkscape:window-width="1280"
     inkscape:window-height="612"
     inkscape:window-x="0"
     inkscape:window-y="27"
     inkscape:window-maximized="1" />
  <metadata
     id="metadata2231">
    <rdf:RDF>
      <cc:Work
         rdf:about="">
        <dc:format>image/svg+xml</dc:format>
        <dc:type
           rdf:resource="http://purl.org/dc/dcmitype/StillImage" />
        <dc:title></dc:title>
      </cc:Work>
    </rdf:RDF>
  </metadata>
  <g
     inkscape:groupmode="layer"
     id="layer2"
     inkscape:label="paint"
     transform="translate(-79.452768,-34.709438)">
    <path
       style="fill:#d4a47e;fill-opacity:1;stroke:none;stroke-width:2.13543;stroke-linecap:round;stroke-linejoin:round;stroke-opacity:1"
       d="m 300.29393,375.27718 v -46.99906 h 45.48296 45.48297 v 46.99906 46.99907 h -45.48297 -45.48296 z"
       id="path2842"
       transform="scale(0.26458333)" />
    <path
       style="fill:#d4a47e;fill-opacity:1;stroke:none;stroke-width:2.13543;stroke-linecap:round;stroke-linejoin:round;stroke-opacity:1"
       d="m 691.44741,375.27718 v -46.99906 h 46.99907 46.99906 v 46.99906 46.99907 h -46.99906 -46.99907 z"
       id="path2844"
       transform="scale(0.26458333)" />
    <path
       style="fill:#d4a47e;fill-opacity:1;stroke:none;stroke-width:2.13543;stroke-linecap:round;stroke-linejoin:round;stroke-opacity:1"
       d="m 497.38677,572.37003 v -46.99907 h 45.48296 45.48297 v 46.99907 46.99906 h -45.48297 -45.48296 z"
       id="path2846"
       transform="scale(0.26458333)" />
    <path
       style="fill:#d4a47e;fill-opacity:1;stroke:none;stroke-width:2.13543;stroke-linecap:round;stroke-linejoin:round;stroke-opacity:1"
       d="m 594.41709,472.30751 v -46.99907 h 46.99906 46.99907 v 46.99907 46.99906 h -46.99907 -46.99906 z"
       id="path2848"
       transform="scale(0.26458333)" />
    <path
       style="fill:#d4a47e;fill-opacity:1;stroke:none;stroke-width:2.13543;stroke-linecap:round;stroke-linejoin:round;stroke-opacity:1"
       d="m 397.32425,472.30751 v -46.99907 h 46.99906 46.99906 v 46.99907 46.99906 h -46.99906 -46.99906 z"
       id="path2850"
       transform="scale(0.26458333)" />
    <path
       style="fill:#d4a47e;fill-opacity:1;stroke:none;stroke-width:2.13543;stroke-linecap:round;stroke-linejoin:round;stroke-opacity:1"
       d="m 497.38677,472.30751 v -46.99907 h 45.48296 45.48297 v 46.99907 46.99906 h -45.48297 -45.48296 z"
       id="path2852"
       transform="scale(0.26458333)" />
    <path
       style="fill:#d4a47e;fill-opacity:1;stroke:none;stroke-width:2.13543;stroke-linecap:round;stroke-linejoin:round;stroke-opacity:1"
       d="m 594.41709,375.27718 v -46.99906 h 46.99906 46.99907 v 46.99906 46.99907 h -46.99907 -46.99906 z"
       id="path2854"
       transform="scale(0.26458333)" />
    <path
       style="fill:#d4a47e;fill-opacity:1;stroke:none;stroke-width:2.13543;stroke-linecap:round;stroke-linejoin:round;stroke-opacity:1"
       d="m 497.38677,375.27718 v -46.99906 h 45.48296 45.48297 v 46.99906 46.99907 h -45.48297 -45.48296 z"
       id="path2856"
       transform="scale(0.26458333)" />
    <path
       style="fill:#d4a47e;fill-opacity:1;stroke:none;stroke-width:2.13543;stroke-linecap:round;stroke-linejoin:round;stroke-opacity:1"
       d="m 420.96775,423.0502 c 13.83779,-0.56313 35.66961,-0.55999 48.51517,0.007 12.84555,0.56696 1.52373,1.0277 -25.15961,1.02386 -26.68334,-0.004 -37.19334,-0.46771 -23.35556,-1.03084 z"
       id="path2858"
       transform="scale(0.26458333)" />
    <path
       style="fill:#d4a47e;fill-opacity:1;stroke:none;stroke-width:2.13543;stroke-linecap:round;stroke-linejoin:round;stroke-opacity:1"
       d="m 397.32425,375.27718 v -46.99906 h 46.99906 46.99906 v 46.99906 46.99907 h -46.99906 -46.99906 z"
       id="path2860"
       transform="scale(0.26458333)" />
    <path
       style="fill:#000000;fill-opacity:1;stroke:none;stroke-width:2.13543;stroke-linecap:round;stroke-linejoin:round;stroke-opacity:1;filter:url(#filter2872)"
       d="m 397.32425,375.27718 v -46.99906 h 46.99906 46.99906 v 46.99906 46.99907 h -46.99906 -46.99906 z"
       id="path2862"
       transform="scale(0.26458333)" />
    <path
       style="fill:#000000;fill-opacity:1;stroke:none;stroke-width:2.13543;stroke-linecap:round;stroke-linejoin:round;stroke-opacity:1"
       d="m 594.41709,178.18434 v -46.99906 h 46.99906 46.99907 v 46.99906 46.99906 h -46.99907 -46.99906 z"
       id="path2876"
       transform="scale(0.26458333)" />
    <path
       style="fill:#ffffff;fill-opacity:1;stroke:none;stroke-width:2.13543;stroke-linecap:round;stroke-linejoin:round;stroke-opacity:1"
       d="m 397.32425,178.18434 v -46.99906 h 46.99906 46.99906 v 46.99906 46.99906 h -46.99906 -46.99906 z"
       id="path2880"
       transform="scale(0.26458333)" />
    <path
       style="fill:#000000;fill-opacity:1;stroke:none;stroke-width:2.13543;stroke-linecap:round;stroke-linejoin:round;stroke-opacity:1"
       d="m 397.32425,178.18434 v -46.99906 h 46.99906 46.99906 v 46.99906 46.99906 h -46.99906 -46.99906 z"
       id="path2882"
       transform="scale(0.26458333)" />
    <path
       style="fill:#000000;fill-opacity:1;stroke:none;stroke-width:2.13543;stroke-linecap:round;stroke-linejoin:round;stroke-opacity:1"
       d="M 497.38677,275.21466 V 228.2156 h 45.48296 45.48297 v 46.99906 46.99907 h -45.48297 -45.48296 z"
       id="path2884"
       transform="scale(0.26458333)" />
    <path
       style="fill:#000000;fill-opacity:1;stroke:none;stroke-width:2.13543;stroke-linecap:round;stroke-linejoin:round;stroke-opacity:1"
       d="m 594.41709,669.40035 v -46.99906 h 46.99906 46.99907 v 46.99906 46.99906 h -46.99907 -46.99906 z"
       id="path2886"
       transform="scale(0.26458333)" />
    <path
       style="fill:#000000;fill-opacity:1;stroke:none;stroke-width:2.13543;stroke-linecap:round;stroke-linejoin:round;stroke-opacity:1"
       d="m 397.32425,572.37003 v -46.99907 h 46.99906 46.99906 v 46.99907 46.99906 h -46.99906 -46.99906 z"
       id="path2888"
       transform="scale(0.26458333)" />
    <path
       style="fill:#000000;fill-opacity:1;stroke:none;stroke-width:2.13543;stroke-linecap:round;stroke-linejoin:round;stroke-opacity:1"
       d="M 397.32425,769.46287 V 722.4638 h 46.99906 46.99906 v 46.99907 46.99906 h -46.99906 -46.99906 z"
       id="path2890"
       transform="scale(0.26458333)" />
    <path
       style="fill:#000000;fill-opacity:1;stroke:none;stroke-width:2.13543;stroke-linecap:round;stroke-linejoin:round;stroke-opacity:1"
       d="m 497.38677,669.40035 v -46.99906 h 45.48296 45.48297 v 46.99906 46.99906 h -45.48297 -45.48296 z"
       id="path2892"
       transform="scale(0.26458333)" />
    <path
       style="fill:#000000;fill-opacity:1;stroke:none;stroke-width:2.13543;stroke-linecap:round;stroke-linejoin:round;stroke-opacity:1"
       d="m 519.3702,717.17775 c 12.92474,-0.56839 34.07432,-0.56839 46.99906,0 12.92475,0.56839 2.34996,1.03343 -23.49953,1.03343 -25.84948,0 -36.42427,-0.46504 -23.49953,-1.03343 z"
       id="path2894"
       transform="scale(0.26458333)" />
    <path
       style="fill:#000000;fill-opacity:1;stroke:none;stroke-width:2.13543;stroke-linecap:round;stroke-linejoin:round;stroke-opacity:1"
       d="m 397.32425,669.40035 v -46.99906 h 46.99906 46.99906 v 46.99906 46.99906 h -46.99906 -46.99906 z"
       id="path2896"
       transform="scale(0.26458333)" />
    <path
       style="fill:#000000;fill-opacity:1;stroke:none;stroke-width:2.13543;stroke-linecap:round;stroke-linejoin:round;stroke-opacity:1"
       d="M 594.41709,769.46287 V 722.4638 h 46.99906 46.99907 v 46.99907 46.99906 h -46.99907 -46.99906 z"
       id="path2898"
       transform="scale(0.26458333)" />
    <path
       style="fill:#000000;fill-opacity:1;stroke:none;stroke-width:2.13543;stroke-linecap:round;stroke-linejoin:round;stroke-opacity:1"
       d="m 594.41709,572.37003 v -46.99907 h 46.99906 46.99907 v 46.99907 46.99906 h -46.99907 -46.99906 z"
       id="path2900"
       transform="scale(0.26458333)" />
    <path
       style="fill:#000000;fill-opacity:1;stroke:none;stroke-width:2.13543;stroke-linecap:round;stroke-linejoin:round;stroke-opacity:1"
       d="m 594.41709,472.30751 v -46.99907 h 46.99906 46.99907 v 46.99907 46.99906 h -46.99907 -46.99906 z"
       id="path2902"
       transform="scale(0.26458333)" />
    <path
       style="fill:#000000;fill-opacity:1;stroke:none;stroke-width:2.13543;stroke-linecap:round;stroke-linejoin:round;stroke-opacity:1"
       d="m 594.41709,375.27718 v -46.99906 h 46.99906 46.99907 v 46.99906 46.99907 h -46.99907 -46.99906 z"
       id="path2904"
       transform="scale(0.26458333)" />
    <path
       style="fill:#000000;fill-opacity:1;stroke:none;stroke-width:2.13543;stroke-linecap:round;stroke-linejoin:round;stroke-opacity:1"
       d="m 397.32425,572.37003 v -46.99907 h 46.99906 46.99906 v 46.99907 46.99906 h -46.99906 -46.99906 z"
       id="path2906"
       transform="scale(0.26458333)" />
    <path
       style="fill:#00ff00;fill-opacity:1;stroke:none;stroke-width:2.13543;stroke-linecap:round;stroke-linejoin:round;stroke-opacity:1"
       d="m 397.32425,472.30751 v -46.99907 h 46.99906 46.99906 v 46.99907 46.99906 h -46.99906 -46.99906 z"
       id="path2908"
       transform="scale(0.26458333)" />
    <path
       style="fill:#00ff00;fill-opacity:1;stroke:none;stroke-width:2.13543;stroke-linecap:round;stroke-linejoin:round;stroke-opacity:1"
       d="m 618.0606,322.98768 c 13.83778,-0.56313 35.6696,-0.55999 48.51516,0.007 12.84555,0.56696 1.52373,1.0277 -25.15961,1.02386 -26.68333,-0.004 -37.19334,-0.46771 -23.35555,-1.03084 z"
       id="path2910"
       transform="scale(0.26458333)" />
    <path
       style="fill:#00ff00;fill-opacity:1;stroke:none;stroke-width:2.13543;stroke-linecap:round;stroke-linejoin:round;stroke-opacity:1"
       d="m 420.96775,322.98768 c 13.83779,-0.56313 35.66961,-0.55999 48.51517,0.007 12.84555,0.56696 1.52373,1.0277 -25.15961,1.02386 -26.68334,-0.004 -37.19334,-0.46771 -23.35556,-1.03084 z"
       id="path2912"
       transform="scale(0.26458333)" />
    <path
       style="fill:#00ff00;fill-opacity:1;stroke:none;stroke-width:2.13543;stroke-linecap:round;stroke-linejoin:round;stroke-opacity:1"
       d="M 397.32425,275.21466 V 228.2156 h 46.99906 46.99906 v 46.99906 46.99907 h -46.99906 -46.99906 z"
       id="path2914"
       transform="scale(0.26458333)" />
    <path
       style="fill:#00ff00;fill-opacity:1;stroke:none;stroke-width:2.13543;stroke-linecap:round;stroke-linejoin:round;stroke-opacity:1"
       d="M 397.32425,275.21466 V 228.2156 h 46.99906 46.99906 v 46.99906 46.99907 h -46.99906 -46.99906 z"
       id="path2916"
       transform="scale(0.26458333)" />
    <path
       style="fill:#00ff00;fill-opacity:1;stroke:none;stroke-width:2.13543;stroke-linecap:round;stroke-linejoin:round;stroke-opacity:1"
       d="m 622.52263,323.14464 c 2.95023,-0.76879 7.04369,-0.71823 9.09659,0.11235 2.0529,0.83059 -0.36093,1.45961 -5.36405,1.39781 -5.00313,-0.0618 -6.68277,-0.74137 -3.73254,-1.51016 z"
       id="path2918"
       transform="scale(0.26458333)" />
    <path
       style="fill:#00ff00;fill-opacity:1;stroke:none;stroke-width:2.13543;stroke-linecap:round;stroke-linejoin:round;stroke-opacity:1"
       d="m 636.14516,323.10137 c 3.77179,-0.72528 9.22975,-0.69775 12.12879,0.0612 2.89905,0.75894 -0.18696,1.35235 -6.8578,1.31869 -6.67083,-0.0336 -9.04278,-0.6546 -5.27099,-1.37988 z"
       id="path2920"
       transform="scale(0.26458333)" />
    <path
       style="fill:#00ff00;fill-opacity:1;stroke:none;stroke-width:2.13543;stroke-linecap:round;stroke-linejoin:round;stroke-opacity:1"
       d="M 594.41709,275.21466 V 228.2156 h 46.99906 46.99907 v 46.99906 46.99907 h -46.99907 -46.99906 z"
       id="path2922"
       transform="scale(0.26458333)" />
    <path
       style="fill:#00ff00;fill-opacity:1;stroke:none;stroke-width:2.13543;stroke-linecap:round;stroke-linejoin:round;stroke-opacity:1"
       d="M 594.41709,275.21466 V 228.2156 h 46.99906 46.99907 v 46.99906 46.99907 h -46.99907 -46.99906 z"
       id="path2924"
       transform="scale(0.26458333)" />
    <path
       style="fill:#00ff00;fill-opacity:1;stroke:none;stroke-width:2.13543;stroke-linecap:round;stroke-linejoin:round;stroke-opacity:1"
       d="m 497.38677,178.18434 v -46.99906 h 45.48296 45.48297 v 46.99906 46.99906 h -45.48297 -45.48296 z"
       id="path2926"
       transform="scale(0.26458333)" />
    <path
       style="fill:#00ff00;fill-opacity:1;stroke:none;stroke-width:2.13543;stroke-linecap:round;stroke-linejoin:round;stroke-opacity:1"
       d="m 594.41709,472.30751 v -46.99907 h 46.99906 46.99907 v 46.99907 46.99906 h -46.99907 -46.99906 z"
       id="path2928"
       transform="scale(0.26458333)" />
    <path
       style="fill:#00ff00;fill-opacity:1;stroke:none;stroke-width:2.13543;stroke-linecap:round;stroke-linejoin:round;stroke-opacity:1"
       d="m 594.41709,669.40035 v -46.99906 h 46.99906 46.99907 v 46.99906 46.99906 h -46.99907 -46.99906 z"
       id="path2930"
       transform="scale(0.26458333)" />
    <path
       style="fill:#00ff00;fill-opacity:1;stroke:none;stroke-width:2.13543;stroke-linecap:round;stroke-linejoin:round;stroke-opacity:1"
       d="M 397.32425,769.46287 V 722.4638 h 46.99906 46.99906 v 46.99907 46.99906 h -46.99906 -46.99906 z"
       id="path2932"
       transform="scale(0.26458333)" />
    <path
       style="fill:#00ff00;fill-opacity:1;stroke:none;stroke-width:2.13543;stroke-linecap:round;stroke-linejoin:round;stroke-opacity:1"
       d="m 397.32425,669.40035 v -46.99906 h 46.99906 46.99906 v 46.99906 46.99906 h -46.99906 -46.99906 z"
       id="path2934"
       transform="scale(0.26458333)" />
    <path
       style="fill:#00ff00;fill-opacity:1;stroke:none;stroke-width:2.13543;stroke-linecap:round;stroke-linejoin:round;stroke-opacity:1"
       d="m 594.41709,866.49319 v -46.99906 h 46.99906 46.99907 v 46.99906 46.99906 h -46.99907 -46.99906 z"
       id="path2936"
       transform="scale(0.26458333)" />
    <path
       style="fill:#00ff00;fill-opacity:1;stroke:none;stroke-width:2.13543;stroke-linecap:round;stroke-linejoin:round;stroke-opacity:1"
       d="m 420.96775,914.2662 c 13.83779,-0.56312 35.66961,-0.55998 48.51517,0.007 12.84555,0.56697 1.52373,1.0277 -25.15961,1.02387 -26.68334,-0.004 -37.19334,-0.46772 -23.35556,-1.03085 z"
       id="path2938"
       transform="scale(0.26458333)" />
    <path
       style="fill:#00ff00;fill-opacity:1;stroke:none;stroke-width:2.13543;stroke-linecap:round;stroke-linejoin:round;stroke-opacity:1"
       d="m 594.41709,866.49319 v -46.99906 h 46.99906 46.99907 v 46.99906 46.99906 h -46.99907 -46.99906 z"
       id="path2940"
       transform="scale(0.26458333)" />
    <path
       style="fill:#00ff00;fill-opacity:1;stroke:none;stroke-width:2.13543;stroke-linecap:round;stroke-linejoin:round;stroke-opacity:1"
       d="M 594.41709,769.46287 V 722.4638 h 46.99906 46.99907 v 46.99907 46.99906 h -46.99907 -46.99906 z"
       id="path2942"
       transform="scale(0.26458333)" />
    <path
       style="fill:#00ff00;fill-opacity:1;stroke:none;stroke-width:2.13543;stroke-linecap:round;stroke-linejoin:round;stroke-opacity:1"
       d="m 397.32425,866.49319 v -46.99906 h 46.99906 46.99906 v 46.99906 46.99906 h -46.99906 -46.99906 z"
       id="path2944"
       transform="scale(0.26458333)" />
  </g>
</svg>
